<svg width="1074" height="287" viewBox="0 0 1074 287" fill="none" xmlns="http://www.w3.org/2000/svg">
<rect width="1074" height="287" rx="32" fill="#1C1C1E"/>
<path d="M127.969 60.4062C127.802 58.9271 127.115 57.7812 125.906 56.9687C124.698 56.1458 123.177 55.7344 121.344 55.7344C120.031 55.7344 118.896 55.9427 117.938 56.3594C116.979 56.7656 116.234 57.3281 115.703 58.0469C115.182 58.7552 114.922 59.5625 114.922 60.4688C114.922 61.2292 115.099 61.8854 115.453 62.4375C115.818 62.9896 116.292 63.4531 116.875 63.8281C117.469 64.1927 118.104 64.5 118.781 64.75C119.458 64.9896 120.109 65.1875 120.734 65.3437L123.859 66.1562C124.88 66.4062 125.927 66.7448 127 67.1719C128.073 67.599 129.068 68.1615 129.984 68.8594C130.901 69.5573 131.641 70.4219 132.203 71.4531C132.776 72.4844 133.063 73.7187 133.063 75.1562C133.063 76.9687 132.594 78.5781 131.656 79.9844C130.729 81.3906 129.38 82.5 127.609 83.3125C125.849 84.125 123.719 84.5313 121.219 84.5313C118.823 84.5313 116.75 84.151 115 83.3906C113.25 82.6302 111.88 81.5521 110.891 80.1562C109.901 78.75 109.354 77.0833 109.25 75.1562H114.094C114.188 76.3125 114.563 77.276 115.219 78.0469C115.885 78.8073 116.734 79.375 117.766 79.75C118.807 80.1146 119.948 80.2969 121.188 80.2969C122.552 80.2969 123.766 80.0833 124.828 79.6562C125.901 79.2187 126.745 78.6146 127.359 77.8437C127.974 77.0625 128.281 76.151 128.281 75.1094C128.281 74.1615 128.01 73.3854 127.469 72.7812C126.938 72.1771 126.214 71.6771 125.297 71.2812C124.391 70.8854 123.365 70.5365 122.219 70.2344L118.438 69.2031C115.875 68.5052 113.844 67.4792 112.344 66.125C110.854 64.7708 110.109 62.9792 110.109 60.75C110.109 58.9062 110.609 57.2969 111.609 55.9219C112.609 54.5469 113.964 53.4792 115.672 52.7188C117.38 51.9479 119.307 51.5625 121.453 51.5625C123.62 51.5625 125.531 51.9427 127.188 52.7031C128.854 53.4635 130.167 54.5104 131.125 55.8437C132.083 57.1667 132.583 58.6875 132.625 60.4062H127.969ZM149.66 60V63.75H136.551V60H149.66ZM140.066 54.25H144.738V76.9531C144.738 77.8594 144.874 78.5417 145.145 79C145.415 79.4479 145.764 79.7552 146.191 79.9219C146.629 80.0781 147.103 80.1562 147.613 80.1562C147.988 80.1562 148.316 80.1302 148.598 80.0781C148.879 80.026 149.098 79.9844 149.254 79.9531L150.098 83.8125C149.827 83.9167 149.441 84.0208 148.941 84.125C148.441 84.2396 147.816 84.3021 147.066 84.3125C145.837 84.3333 144.691 84.1146 143.629 83.6562C142.566 83.1979 141.707 82.4896 141.051 81.5312C140.395 80.5729 140.066 79.3698 140.066 77.9219V54.25ZM164.914 84.4844C162.549 84.4844 160.513 83.9792 158.805 82.9688C157.107 81.9479 155.794 80.5156 154.867 78.6719C153.951 76.8177 153.492 74.6458 153.492 72.1562C153.492 69.6979 153.951 67.5312 154.867 65.6562C155.794 63.7812 157.086 62.3177 158.742 61.2656C160.409 60.2135 162.357 59.6875 164.586 59.6875C165.94 59.6875 167.253 59.9115 168.523 60.3594C169.794 60.8073 170.935 61.5104 171.945 62.4687C172.956 63.4271 173.753 64.6719 174.336 66.2031C174.919 67.724 175.211 69.5729 175.211 71.75V73.4062H156.133V69.9062H170.633C170.633 68.6771 170.383 67.5885 169.883 66.6406C169.383 65.6823 168.68 64.9271 167.773 64.375C166.878 63.8229 165.826 63.5469 164.617 63.5469C163.305 63.5469 162.159 63.8698 161.18 64.5156C160.211 65.151 159.461 65.9844 158.93 67.0156C158.409 68.0365 158.148 69.1458 158.148 70.3438V73.0781C158.148 74.6823 158.43 76.0469 158.992 77.1719C159.565 78.2969 160.362 79.1562 161.383 79.75C162.404 80.3333 163.596 80.625 164.961 80.625C165.846 80.625 166.654 80.5 167.383 80.25C168.112 79.9896 168.742 79.6042 169.273 79.0937C169.805 78.5833 170.211 77.9531 170.492 77.2031L174.914 78C174.56 79.3021 173.924 80.4427 173.008 81.4219C172.102 82.3906 170.961 83.1458 169.586 83.6875C168.221 84.2188 166.664 84.4844 164.914 84.4844ZM180.395 93V60H184.957V63.8906H185.348C185.618 63.3906 186.009 62.8125 186.52 62.1562C187.03 61.5 187.738 60.9271 188.645 60.4375C189.551 59.9375 190.749 59.6875 192.238 59.6875C194.176 59.6875 195.905 60.1771 197.426 61.1563C198.947 62.1354 200.139 63.5469 201.004 65.3906C201.879 67.2344 202.316 69.4531 202.316 72.0469C202.316 74.6406 201.884 76.8646 201.02 78.7187C200.155 80.5625 198.967 81.9844 197.457 82.9844C195.947 83.974 194.223 84.4688 192.285 84.4688C190.827 84.4688 189.634 84.224 188.707 83.7344C187.79 83.2448 187.072 82.6719 186.551 82.0156C186.03 81.3594 185.629 80.776 185.348 80.2656H185.066V93H180.395ZM184.973 72C184.973 73.6875 185.217 75.1667 185.707 76.4375C186.197 77.7083 186.905 78.7031 187.832 79.4219C188.759 80.1302 189.895 80.4844 191.238 80.4844C192.634 80.4844 193.801 80.1146 194.738 79.375C195.676 78.625 196.384 77.6094 196.863 76.3281C197.353 75.0469 197.598 73.6042 197.598 72C197.598 70.4167 197.358 68.9948 196.879 67.7344C196.41 66.474 195.702 65.4792 194.754 64.75C193.816 64.0208 192.645 63.6562 191.238 63.6562C189.884 63.6562 188.738 64.0052 187.801 64.7031C186.874 65.401 186.171 66.375 185.691 67.625C185.212 68.875 184.973 70.3333 184.973 72ZM225.535 65.8594L221.301 66.6094C221.124 66.0677 220.842 65.5521 220.457 65.0625C220.082 64.5729 219.572 64.1719 218.926 63.8594C218.28 63.5469 217.473 63.3906 216.504 63.3906C215.181 63.3906 214.077 63.6875 213.191 64.2812C212.306 64.8646 211.863 65.6198 211.863 66.5469C211.863 67.349 212.16 67.9948 212.754 68.4844C213.348 68.974 214.306 69.375 215.629 69.6875L219.441 70.5625C221.65 71.0729 223.296 71.8594 224.379 72.9219C225.462 73.9844 226.004 75.3646 226.004 77.0625C226.004 78.5 225.587 79.7812 224.754 80.9062C223.931 82.0208 222.78 82.8958 221.301 83.5312C219.832 84.1667 218.129 84.4844 216.191 84.4844C213.504 84.4844 211.311 83.9115 209.613 82.7656C207.915 81.6094 206.874 79.9687 206.488 77.8437L211.004 77.1562C211.285 78.3333 211.863 79.224 212.738 79.8281C213.613 80.4219 214.754 80.7187 216.16 80.7187C217.691 80.7187 218.915 80.401 219.832 79.7656C220.749 79.1198 221.207 78.3333 221.207 77.4063C221.207 76.6562 220.926 76.026 220.363 75.5156C219.811 75.0052 218.962 74.6198 217.816 74.3594L213.754 73.4687C211.514 72.9583 209.858 72.1458 208.785 71.0313C207.723 69.9167 207.191 68.5052 207.191 66.7969C207.191 65.3802 207.587 64.1406 208.379 63.0781C209.171 62.0156 210.264 61.1875 211.66 60.5937C213.056 59.9896 214.655 59.6875 216.457 59.6875C219.051 59.6875 221.092 60.25 222.582 61.375C224.072 62.4896 225.056 63.9844 225.535 65.8594Z" fill="#FE6634"/>
<path d="M73.5005 83.999C77.6112 83.999 81.5536 82.3902 84.4603 79.5265C87.367 76.6628 89 72.7788 89 68.7289C88.9693 64.6069 87.5214 60.6168 84.8926 57.4099C81.8283 53.5013 80.0988 48.7371 79.9522 43.8004C79.9342 43.4893 79.8392 43.1873 79.6755 42.9207C79.5118 42.6541 79.2843 42.431 79.0129 42.271C78.7416 42.111 78.4346 42.0188 78.1187 42.0026C77.8029 41.9864 77.4878 42.0466 77.201 42.1779C73.9503 43.5565 71.133 45.7666 69.0413 48.5791C66.9496 51.3916 65.6596 54.7042 65.3051 58.1734C64.8577 57.5781 64.4745 56.9384 64.1621 56.2646C64.0424 55.9387 63.8349 55.651 63.5618 55.4324C63.2888 55.2138 62.9605 55.0726 62.6121 55.0239C62.262 54.9766 61.9055 55.0245 61.5811 55.1625C61.2567 55.3004 60.9767 55.5231 60.7715 55.8065C60.4809 56.1501 58.001 59.8149 58.001 68.7289C57.9776 70.7406 58.3626 72.7366 59.1332 74.5996C59.9039 76.4627 61.0447 78.1552 62.4886 79.5778C63.9326 81.0004 65.6505 82.1243 67.5416 82.8835C69.4326 83.6428 71.4586 84.022 73.5005 83.999ZM76.3873 46.9689C77.0338 51.5432 78.8543 55.8792 81.6765 59.5668C83.8783 62.1295 85.0986 65.3715 85.1251 68.7289C85.1251 71.7663 83.9004 74.6793 81.7204 76.8271C79.5403 78.9749 76.5835 80.1815 73.5005 80.1815C71.9645 80.2154 70.4375 79.9423 69.0116 79.3788C67.5856 78.8152 66.2904 77.9729 65.204 76.9026C64.1176 75.8323 63.2627 74.5562 62.6906 73.1514C62.1186 71.7466 61.8415 70.2421 61.8759 68.7289C61.8356 66.1588 62.122 63.5938 62.7284 61.0938C63.7463 62.3578 64.9629 63.4532 66.332 64.3387C66.6468 64.5392 67.0138 64.6454 67.3887 64.6445C67.7635 64.6436 68.1301 64.5356 68.4438 64.3335C68.7576 64.1315 69.0051 63.8441 69.1564 63.5062C69.3078 63.1683 69.3563 62.7945 69.2963 62.43C68.7284 59.4476 69.1041 56.3653 70.3723 53.6001C71.6405 50.8349 73.7402 48.5202 76.3873 46.9689Z" fill="#FE6634"/>
    <text id="datetime" x="710" y="72" font-size="39" fill="#99989E">2023-06-25</text>
<g>
<text id="steps" x="55" y="234" font-size="85" fill="#FFFFFF">
                                                                                                                                                                                                                                                                                                                                                                                                                                                                                                                     <tspan id="step-count" font-weight="bold">0</tspan>
<tspan font-size="42" fill="#99989E" font-weight="lighter">steps</tspan>
</text>
</g>
</svg>




































































































































